<mxfile host="Electron" agent="Mozilla/5.0 (X11; Linux x86_64) AppleWebKit/537.36 (KHTML, like Gecko) draw.io/26.0.4 Chrome/128.0.6613.186 Electron/32.2.5 Safari/537.36" version="26.0.4">
  <diagram name="Page-1" id="yw-IefklSJXCo-ZVXQXU">
    <mxGraphModel dx="1608" dy="843" grid="1" gridSize="10" guides="1" tooltips="1" connect="1" arrows="1" fold="1" page="1" pageScale="1" pageWidth="1169" pageHeight="827" math="0" shadow="0">
      <root>
        <mxCell id="0" />
        <mxCell id="1" parent="0" />
        <mxCell id="-dVlEZUTP6w0MvIwDnP5-3" value="" style="rounded=1;whiteSpace=wrap;html=1;" parent="1" vertex="1">
          <mxGeometry x="420" y="354" width="120" height="60" as="geometry" />
        </mxCell>
        <mxCell id="-dVlEZUTP6w0MvIwDnP5-4" value="" style="rounded=1;whiteSpace=wrap;html=1;" parent="1" vertex="1">
          <mxGeometry x="540" y="530" width="120" height="60" as="geometry" />
        </mxCell>
        <mxCell id="-dVlEZUTP6w0MvIwDnP5-5" value="" style="rounded=1;whiteSpace=wrap;html=1;" parent="1" vertex="1">
          <mxGeometry x="300" y="530" width="120" height="60" as="geometry" />
        </mxCell>
        <mxCell id="-dVlEZUTP6w0MvIwDnP5-7" value="MOM" style="text;html=1;align=center;verticalAlign=middle;whiteSpace=wrap;rounded=0;" parent="1" vertex="1">
          <mxGeometry x="440" y="300" width="60" height="30" as="geometry" />
        </mxCell>
        <mxCell id="-dVlEZUTP6w0MvIwDnP5-8" value="Liste&lt;span style=&quot;color: rgba(0, 0, 0, 0); font-family: monospace; font-size: 0px; text-align: start; text-wrap: nowrap;&quot;&gt;%3CmxGraphModel%3E%3Croot%3E%3CmxCell%20id%3D%220%22%2F%3E%3CmxCell%20id%3D%221%22%20parent%3D%220%22%2F%3E%3CmxCell%20id%3D%222%22%20value%3D%22MOM%22%20style%3D%22text%3Bhtml%3D1%3Balign%3Dcenter%3BverticalAlign%3Dmiddle%3BwhiteSpace%3Dwrap%3Brounded%3D0%3B%22%20vertex%3D%221%22%20parent%3D%221%22%3E%3CmxGeometry%20x%3D%22440%22%20y%3D%22300%22%20width%3D%2260%22%20height%3D%2230%22%20as%3D%22geometry%22%2F%3E%3C%2FmxCell%3E%3C%2Froot%3E%3C%2FmxGraphModel%3E&lt;/span&gt;" style="text;html=1;align=center;verticalAlign=middle;whiteSpace=wrap;rounded=0;" parent="1" vertex="1">
          <mxGeometry x="470" y="369" width="60" height="30" as="geometry" />
        </mxCell>
        <mxCell id="-dVlEZUTP6w0MvIwDnP5-9" value="Client" style="text;html=1;align=center;verticalAlign=middle;whiteSpace=wrap;rounded=0;" parent="1" vertex="1">
          <mxGeometry x="570" y="545" width="60" height="30" as="geometry" />
        </mxCell>
        <mxCell id="-dVlEZUTP6w0MvIwDnP5-10" value="Client" style="text;html=1;align=center;verticalAlign=middle;whiteSpace=wrap;rounded=0;" parent="1" vertex="1">
          <mxGeometry x="330" y="545" width="60" height="30" as="geometry" />
        </mxCell>
        <mxCell id="-dVlEZUTP6w0MvIwDnP5-11" value="Callback" style="text;html=1;align=center;verticalAlign=middle;whiteSpace=wrap;rounded=0;" parent="1" vertex="1">
          <mxGeometry x="670" y="545" width="60" height="30" as="geometry" />
        </mxCell>
        <mxCell id="-dVlEZUTP6w0MvIwDnP5-13" value="subscribe(t,cb)" style="text;html=1;align=center;verticalAlign=middle;whiteSpace=wrap;rounded=0;" parent="1" vertex="1">
          <mxGeometry x="585" y="450" width="60" height="30" as="geometry" />
        </mxCell>
        <mxCell id="-dVlEZUTP6w0MvIwDnP5-14" value="" style="endArrow=none;html=1;rounded=0;" parent="1" edge="1">
          <mxGeometry width="50" height="50" relative="1" as="geometry">
            <mxPoint x="590" y="520" as="sourcePoint" />
            <mxPoint x="540" y="420" as="targetPoint" />
          </mxGeometry>
        </mxCell>
        <mxCell id="-dVlEZUTP6w0MvIwDnP5-15" value="" style="endArrow=none;html=1;rounded=0;entryX=0.183;entryY=1.017;entryDx=0;entryDy=0;entryPerimeter=0;" parent="1" edge="1">
          <mxGeometry width="50" height="50" relative="1" as="geometry">
            <mxPoint x="380" y="522.49" as="sourcePoint" />
            <mxPoint x="401.96000000000004" y="407.51" as="targetPoint" />
          </mxGeometry>
        </mxCell>
        <mxCell id="-dVlEZUTP6w0MvIwDnP5-16" value="publish(t,m)" style="text;html=1;align=center;verticalAlign=middle;whiteSpace=wrap;rounded=0;" parent="1" vertex="1">
          <mxGeometry x="300" y="450" width="60" height="30" as="geometry" />
        </mxCell>
      </root>
    </mxGraphModel>
  </diagram>
</mxfile>
